# xmcd
#
# Track frame offsets:
#	150
#	11797
#	21449
#	33062
#	43444
#	55174
#	65499
#	75864
#	86294
#	96443
#	110019
#	122714
#	134802
#	146110
#	156657
#	169412
#	180359
#	190562
#	202452
#	213227
#	224837
#	235914
#	246634
#	258181
#
# Disc length: 3590 seconds
#
# Revision: 1
# Processed by: cddbd v1.5.2PL0 Copyright (c) Steve Scherf et al.
# Submitted via: audiograbber 1.83.01
#
DISCID=730e0418
DTITLE=Wanda Jackson - Wonderful Wanda and Lovin' Country Style
DYEAR=1960
DGENRE=Country
TTITLE0=In the Middle of a Heartache
TTITLE1=Seven Lonely Days
TTITLE2=If I Cried Every Time You Hurt Me
TTITLE3=Is It Wrong
TTITLE4=Don't Ask Me Why
TTITLE5=Let My Love Walk In
TTITLE6=A Little Bitty Tear
TTITLE7=I Need You Now
TTITLE8=I Don't Want to Go
TTITLE9=We Could
TTITLE10=We Don't Know, Baby
TTITLE11=I'd Be Ashamed //
TTITLE12=Lovin' Country Style
TTITLE13=Wasted
TTITLE14=Nobody's Darlin' But Mine
TTITLE15=You Won't Forget (About Me)
TTITLE16=I'd Rather Have a Broken Heart
TTITLE17=If You Knew What I Know
TTITLE18=Tears at the Grand Ole Opry
TTITLE19=I Cried Again
TTITLE20=It's the Same World
TTITLE21=The Heart You Could Have Had
TTITLE22=The Right to Love
TTITLE23=You'd Be the First One to Know
EXTD=
EXTT0=
EXTT1=
EXTT2=
EXTT3=
EXTT4=
EXTT5=
EXTT6=
EXTT7=
EXTT8=
EXTT9=
EXTT10=
EXTT11=
EXTT12=
EXTT13=
EXTT14=
EXTT15=
EXTT16=
EXTT17=
EXTT18=
EXTT19=
EXTT20=
EXTT21=
EXTT22=
EXTT23=
PLAYORDER=
